<svg width="18" height="18" viewBox="0 0 18 18" fill="#5675AC" xmlns="http://www.w3.org/2000/svg">
<path d="M10.1289 6C9.46484 6 6.57617 6.0625 4.75 8.6875V6C4.75 4.375 3.28906 3 1.5625 3C0.964844 3 0.5 3.46875 0.5 4C0.5 4.5625 0.964844 5 1.5625 5C2.12695 5 2.625 5.46875 2.625 6V14C2.625 15.125 3.55469 16 4.75 16H10.5938C10.8594 16 11.125 15.7813 11.125 15.5V15C11.125 14.4688 10.627 14 10.0625 14H9L13.25 11V15.5C13.25 15.7813 13.4824 16 13.7813 16H14.8438C15.1094 16 15.375 15.7813 15.375 15.5V9.0625C15.0098 9.15625 14.6777 9.21875 14.3125 9.21875C12.2539 9.21875 10.5273 7.84375 10.1289 6ZM15.375 3H13.25L11.125 1V5.21875C11.125 6.875 12.5195 8.21875 14.3125 8.21875C16.0723 8.21875 17.5 6.875 17.5 5.21875V1L15.375 3ZM12.9844 5.5C12.6855 5.5 12.4531 5.28125 12.4531 5C12.4531 4.75 12.6855 4.5 12.9844 4.5C13.25 4.5 13.5156 4.75 13.5156 5C13.5156 5.28125 13.25 5.5 12.9844 5.5ZM15.6406 5.5C15.3418 5.5 15.1094 5.28125 15.1094 5C15.1094 4.75 15.3418 4.5 15.6406 4.5C15.9063 4.5 16.1719 4.75 16.1719 5C16.1719 5.28125 15.9063 5.5 15.6406 5.5Z" />
</svg>
