<svg width="18" height="18" viewBox="0 0 18 18" fill="#5675AC" xmlns="http://www.w3.org/2000/svg">
<path d="M9.3125 6.49449H4C3.4375 6.49449 3 6.05672 3 5.49388C3 4.9623 2.53125 4.49327 2 4.49327C1.4375 4.49327 1 4.9623 1 5.49388C1 6.80718 1.8125 7.9016 3 8.33937V14.9997C3 15.2811 3.21875 15.5 3.5 15.5H5.5C5.75 15.5 6 15.2811 6 14.9997V11.4976H11V14.9997C11 15.2811 11.2188 15.5 11.5 15.5H13.5C13.75 15.5 14 15.2811 14 14.9997V8.18302L9.3125 6.49449ZM17 2.99235C17 2.7422 16.75 2.49204 16.5 2.49204H14.5L14.25 2.05428C14.0938 1.74158 13.7188 1.49143 13.375 1.49143H11.6875L10.8438 0.647165C10.5313 0.334474 10 0.553358 10 0.991126V5.68149L14 7.11987V5.99419H15C16.0938 5.99419 17 5.11865 17 3.99296V2.99235ZM13.5 2.99235C13.5 3.27377 13.25 3.49266 13 3.49266C12.7188 3.49266 12.5 3.27377 12.5 2.99235C12.5 2.7422 12.7188 2.49204 13 2.49204C13.25 2.49204 13.5 2.7422 13.5 2.99235Z" />
</svg>
